<svg xmlns="http://www.w3.org/2000/svg" viewBox="0 0 504.91 338.71"><defs><style>.cls-1{font-size:36px;font-family:BerlinSansFBDemi-Bold, Berlin Sans FB Demi;font-weight:700;}</style></defs><g id="Layer_2" data-name="Layer 2"><g id="Layer_1-2" data-name="Layer 1"><path d="M230.73,0c32.62,2.1,63.4,10.83,91.54,27.4,13,7.65,24.67,17.48,37.09,26.1,4.05,2.8,3.93,6,2.26,9.85-.89,2.06-3.73,4.77-.2,6.17,5.24,1.6,4.86-3.19,6.18-7.33a.74.74,0,0,1,1.27-.24l23,27.3a.74.74,0,0,1-.22,1.12L374,100a.75.75,0,0,1-.91-.16c-6.18-7-12.05-15-19.29-21.44C341,66.35,325.35,57.3,313.18,44.54c-2.41-2.76-6.39-1.65-9.43-2.85-25.7-11.67-52.67-20.4-81.19-20.37-4.91-.13-9.51-.6-13.41-4.3-1.07-1-3.69-.74-5.54-.52-23.07,3.1-44.52,12.4-65.84,21.18-5.71,2.56-3.28-4.42-11.63,1.34l-.06,0C19.12,95.92-19.41,219.54,62,310.55c5.18,5.35-1.49,7.34-5.49,10.48h0c-.41-4.72-.65-8.82-1.19-12.87-.16-1.15-1.22-2.18-1.87-3.26-6.7,2.69-6.91,10.33-5.61,16.17.25,1.44,2.6,2.52,4.19,4l-3.57,2.88h0l-6.72-7.5h0c5.49-3.46,3.71-8.73,3.94-13.5.2-4-2.57-3.76-5.36-3.89-6.16-.43-2.77,4.77-5.3,8.57h0C-.15,260.41-10.33,221.66,11.35,161.84a1.29,1.29,0,0,0,0-.19c.87-19.78,24.36-66.79,40.85-78.12a.7.7,0,0,0,.28-.4c2.18-8.57,9.2-13.43,15-19,33-33.4,76.88-49.45,122.3-57.22h.06M304.51,33.34a.74.74,0,0,0-.07-1.09c-2.08-1.62-3.8-3.25-4.15-3-1.58,1.15-3.46,2.9-3.66,4.61-.13,1.07,1.67,2.37,3,3.6a.73.73,0,0,0,1,0ZM26.37,262.61l-2.77-3.27a.74.74,0,0,0-1.14,0c-2.9,3.71-3.67,4.57-.55,8.5a.73.73,0,0,0,1.16,0l3.32-4.32A.73.73,0,0,0,26.37,262.61Zm-11-74.6L12,187.4a5.36,5.36,0,0,0,.3,2.68l2.85-.29ZM339.12,44.29l-.61-.07a.76.76,0,0,0-.72.37,22.07,22.07,0,0,0-2.13,4.23c-.13.42.53,1.08,1.12,1.71a.72.72,0,0,0,1.05,0,13.75,13.75,0,0,0,2.8-3.19c.3-.57-.46-1.68-.92-2.65A.76.76,0,0,0,339.12,44.29Z"/><path d="M290.05,142.4c23.78-10.21,47.94-9.45,72.21-6a264,264,0,0,1,25.89,5.44c3.72,1.08,8.36,5,4.83,9a9.35,9.35,0,0,1-6.33,1.46c-7.85-1.44-15.56-3.75-23.43-5-18.69-3.05-37.45-4.06-56.07.54A68.45,68.45,0,0,0,294,152.47c-1.27.62-2.26,3.37-2.16,5.07C295,198.23,280,237,251.78,265.73c21.21,15,4.71,26.1-11.23,35,4.75,5.91,7.27,12.65,1.79,19.83A9.49,9.49,0,0,1,231.17,324c-8.27-2.78-9.76-9.61-9.49-17.12l-56.1,9.26c4,9.08,3.53,15.09-1.5,19.61-3.61,3.24-8.53,4-12.46,1.37-7.73-5.21-7.12-12.34-3.63-19.85-8.45,0-16.09.09-24.22,0-7.87.13-7.33-10.58.26-10.45,41.09-1.79,84.53-2.63,121.93-21.72,10.61-3.9-.19-14.77-7.28-10.16C159.14,328.61,58.92,257.77,50.77,170.23a71.68,71.68,0,0,1,.13-16.43c.19-1.88,2.54-3.56,3.9-5.33,1.35,1.65,3.49,3.13,3.9,5,1.37,6.34,2,12.83,3.15,19.23C74.29,274,207,329.25,265,231.16c19.35-34.61,20.58-71.61,8.66-108.71-1.09-3.38-.93-6.53,2.87-7.85s6.1,1.2,7.13,4.46C286,126.86,288.06,134.42,290.05,142.4Z"/><path d="M317.62,251.1a3.14,3.14,0,0,0,5.65-.32c8.68-20.61,21.56-12.21,28,9.67A133.61,133.61,0,0,1,355,308.5c-.17,1.63-.2,3.76-1.19,4.71-4.47,4.67-8.26,4.64-11.11-.88a3.06,3.06,0,0,1-.33-1.36c-.24-18.87,1.42-38.24-5.19-56.57l0-.08a3.14,3.14,0,0,0-5.89-.11c-3.23,8.33-3.17,17.26-5.32,26.1-.45,2.34-1,5.25-2.53,6.67-3.8,3.43-8.8.9-9.68-4.62-1.47-9.51-1.88-19.35-6.18-28.14-6.31-12.83-10.39,11.21-11.7,16.46-3.44,16.48-3,34-1,50,.08.67.23-.75,0,0-.65,2.07-4.43,2.55-6.14,1.22a3.09,3.09,0,0,1-1.26-1.64c-5.18-23.38-5.81-46.57,4.48-68.94,2.44-5.28,5.89-9.93,12.55-9.87C311.08,241.67,314.77,246,317.62,251.1Z"/><path d="M402.9,260.82c-.26,5.82-.48,11.64-.8,17.45-.22,4-2.14,6.89-6.4,6.79s-5.91-3.26-6-7.18c-.11-7.49-.22-15-.07-22.48.07-3.8-1.52-5.2-5.19-5.57-18-1.83-19.22-.83-18.71,17.19.16,4.22.81,8.44.15,12.47-.54,3.28-5.36,3.63-6.14.4a3.11,3.11,0,0,1-.07-.44c-.85-9.77-1.54-19.59-1.42-29.39.36-16.2,1.59-33.59,10.49-47.69,5.38-7.42,13.79-7.72,19.21-.25C399.76,219.19,402.18,240.57,402.9,260.82ZM377.42,205c-9.17,11.87-9.2,25.25-11.53,38l22-4.48C386.64,227.17,385.58,215.55,377.42,205Z"/><path d="M425.53,241.48c4.78-16.32,5.72-33.47,4.29-50.43-.58-6.75,1.09-9.88,5.05-10.21s6.22,2.48,6.62,9.31c1.12,18.83,1.53,37.64-4.14,56-3.08,13.24-17.47,22.4-25.28,7.3-9.64-18.83-7-40.19-7.38-60.61a12.34,12.34,0,0,1,3-8.47,2.68,2.68,0,0,1,4.21,0,5.4,5.4,0,0,1,1.27,2.63c1.89,18.15,1,37.39,7.3,54.68A2.67,2.67,0,0,0,425.53,241.48Z"/><path d="M107.89,197.68c-4-20,10-49.79,34.53-36.16,19.18,12.41,28.52,35.66,33,57.27.6,3.55.53,7.06-3.77,7.92s-5.76-2.37-6.54-5.87c-3.31-14.93-8.27-29.18-18.22-41.09-6.05-7.2-18.12-17.73-24.58-5.13-9.34,16.73-3.12,35.65,0,53.14.65,3.64,2.68,8.53-2,10.1-5.12,1.73-6.84-3.55-7.72-7.17"/><path d="M179,185c.7-23.48,15.37-50.45,42-36.38,17.34,10,26.6,28,31.85,46.53,3,8.12-8.29,11.6-10.09,2.95-3.66-12.44-8.71-24.15-18.15-33.36-8.73-9.08-23.07-14.77-29.86-.32-5,9.81-4.92,20.24-3.41,30.75.8,6.49,3.8,12.93,3.74,19.5-.17,1.5-1.51,3.61-2.81,4.06-4.4,1-7.32-4.25-8.22-7.87C182.18,202.32,180.67,193.66,179,185Z"/><path d="M459.18,212c0,7-.23,13.84.09,20.6.19,4.81,2.78,6.57,7.84,5.34,2.66.75,7,.86,7.63,2.45,1.63,4-2.24,6.2-5.31,7.75a13.34,13.34,0,0,1-19.2-10.37c-2.31-18.68-.61-37.59,1.29-56.24.91-9.28,3.83-12.64,12.94-14.52,6.19-1.28,15.13-2.15,17.41,5.35,1.35,7.29-13.73,4.92-18.3,6.51-1.21.2-3.07,1.65-3.15,2.65a121.94,121.94,0,0,0,0,17.93c5.52.26,10.79.47,16.06.77,3.48.2,5.7,2,5.77,5.59s-2,5.89-5.37,6.1C471.24,212.28,465.6,212,459.18,212Z"/><path d="M182.22,273.78c-12-.1-22.52-4-31.28-12.29-2.75-2.61-4.79-5.7-1.61-9.05,3-3.15,6.11-1.4,8.72,1.1,22,21.19,58.3,5.13,64.53-23.36a7.06,7.06,0,0,1,.25-.93c1.07-3.2,3-5.34,6.72-4.28,3.86,1.1,4.25,4.33,3.43,7.7C227.77,255.79,206,274.18,182.22,273.78Z"/><path d="M206.81,177.28a7.55,7.55,0,0,1,2.42-7.43A3.46,3.46,0,0,1,211,169c1.76-.2,5.09,2.22,5.6,4.07a211,211,0,0,1,5.21,24.88c.06,5.93-7.16,7.51-9.63,2.22C210.09,193,208.61,185.57,206.81,177.28Z"/><path d="M133.9,210.68a7.22,7.22,0,0,1-7-2.62,2.94,2.94,0,0,1-.71-1.67c0-1.94,2.13-5.11,4-5.68A62.76,62.76,0,0,1,145.88,198c1.93-.08,5.26,2.28,5.59,4s-1.92,5.17-3.72,5.75C143.53,209.13,139.07,209.78,133.9,210.68Z"/><text class="cls-1" transform="translate(364.14 309.05)">groceries</text><circle cx="157.39" cy="326.18" r="12.5"/><circle cx="233.39" cy="312.18" r="12.5"/><path d="M327.51,198.5c8.36,0,8.38-13,0-13s-8.38,13,0,13Z"/><path d="M347.37,117.07c8.37,0,8.38-13,0-13s-8.38,13,0,13Z"/><path d="M409.94,161.76c8.36,0,8.38-13,0-13s-8.38,13,0,13Z"/><path d="M451.65,147.84c5.79,0,5.8-9,0-9s-5.8,9,0,9Z"/><path d="M380.14,179.61c4.51,0,4.52-7,0-7s-4.51,7,0,7Z"/><path d="M337.44,164.72c4.51,0,4.51-7,0-7s-4.51,7,0,7Z"/><path d="M102.08,114.05a1.5,1.5,0,0,0,0-3,1.5,1.5,0,0,0,0,3Z"/><path d="M142.79,90.74c6.44,0,6.45-10,0-10s-6.44,10,0,10Z"/><path d="M183.51,120.53c6.43,0,6.45-10,0-10s-6.45,10,0,10Z"/><path d="M276.86,70.88c6.44,0,6.45-10,0-10s-6.44,10,0,10Z"/><path d="M209.33,66.89c3.86,0,3.87-6,0-6s-3.87,6,0,6Z"/><path d="M82.21,146.34c3.86,0,3.87-6,0-6s-3.86,6,0,6Z"/><path d="M208.34,97.68c3.86,0,3.86-6,0-6s-3.87,6,0,6Z"/><path d="M239.12,119.55c7.73,0,7.74-12,0-12s-7.73,12,0,12Z"/><path d="M105.05,94.72c7.73,0,7.74-12,0-12s-7.73,12,0,12Z"/><path d="M244.09,81.3c5.79,0,5.8-9,0-9s-5.8,9,0,9Z"/><path d="M300.7,90.23c4.5,0,4.51-7,0-7s-4.52,7,0,7Z"/><path d="M165.63,61c9,0,9-14,0-14s-9,14,0,14Z"/></g></g></svg>