<svg xmlns="http://www.w3.org/2000/svg" viewBox="0 0 949.07 878.23"><defs><style>.cls-1{fill:#fff;}</style></defs><g id="Layer_2" data-name="Layer 2"><g id="Layer_1-2" data-name="Layer 1"><path class="cls-1" d="M0,16.38C12-1.72,19.39-3.81,40.19,5.18c30,13,59.87,26.3,90,38.89,18.8,7.84,29.47,21.26,33,41.22,3.34,18.83,7.78,37.46,11.25,56.27,1.28,6.92,4,9.34,11.44,9.29,53.14-.36,106.28-.19,159.42-.19q273.9,0,547.79.08c7.37,0,15,.15,22,2a45.75,45.75,0,0,1,32.92,53.73q-32.05,156.89-64.47,313.69c-5.61,27.13-23,40.17-52.77,40.17q-261.84,0-523.69,0c-12.05,0-24.1,0-36.14,0-3,0-6,.26-9.89.44,4.56,22.18,9,43.54,13.56,65.93h12q268.34,0,536.67,0a75.27,75.27,0,0,1,14.72,1.07,22.9,22.9,0,0,1-1.38,45.07,77.51,77.51,0,0,1-12,.72q-271.11,0-542.23,0c-32.65,0-48.29-12.81-54.81-44.49Q173,363.57,118.42,97.94c-1.4-6.85-4.52-10.34-10.89-13-29-12.15-57.73-25-86.73-37.23C11.59,43.83,4.22,38.56,0,29.36ZM837.36,513.66c21.78-105.74,43.33-210.41,64.95-315.38H187c.26,2.7.28,4.57.65,6.36,20.46,99.41,41.08,198.79,61.24,298.27,1.78,8.77,5.11,11,13.82,11q281.76-.42,563.53-.21Z"/><path class="cls-1" d="M397.7,711.41c46.31-.11,83.94,37.35,83.84,83.46-.1,45.54-37.7,83.19-83.24,83.36-46.06.17-83.66-37.49-83.57-83.68A83,83,0,0,1,397.7,711.41Zm-36.4,82.75a36.88,36.88,0,0,0,36.59,37.51c19.9.07,36.56-16.37,36.93-36.43A36.93,36.93,0,0,0,398,757.91,36.54,36.54,0,0,0,361.3,794.16Z"/><path class="cls-1" d="M607.52,794.77a83.4,83.4,0,0,1,166.8-.12c.1,45.85-38,83.79-83.93,83.58C644.72,878,607.54,840.58,607.52,794.77Zm46.61-.51a36.7,36.7,0,1,0,36.61-36.35A36.83,36.83,0,0,0,654.13,794.26Z"/><path class="cls-1" d="M544.57,271.87q81.57,0,163.12,0c14,0,22.79,5.79,25.91,16.52,4,13.93-5.23,27.85-19.92,29.77a57.17,57.17,0,0,1-7.41.21q-161.73,0-323.45,0c-1.85,0-3.71.07-5.56,0-13.71-.85-23.51-11-23.12-24,.38-12.59,10.09-22.26,23.61-22.36,36.15-.26,72.29-.12,108.44-.13Z"/><path class="cls-1" d="M544.15,439.28q-71.31,0-142.63,0c-4.29,0-8.76,0-12.82-1.15-10.62-3-17-12.95-16.16-24.08a23.13,23.13,0,0,1,20.13-21,55.15,55.15,0,0,1,7.39-.23H689c1.85,0,3.72-.06,5.56.1,12.63,1.13,21.74,11,21.63,23.39-.11,12.55-9.15,22.42-22,22.78-17.59.49-35.2.22-52.79.23Q592.77,439.3,544.15,439.28Z"/></g></g></svg>